<mxfile host="app.diagrams.net" modified="2024-06-25T04:39:11.403Z" agent="Mozilla/5.0 (Macintosh; Intel Mac OS X 10_15_7) AppleWebKit/537.36 (KHTML, like Gecko) Chrome/125.0.0.0 Safari/537.36" etag="WW3b3_gra7DmHT1V1Osx" version="24.4.10" type="github">
  <diagram id="C5RBs43oDa-KdzZeNtuy" name="Page-1">
    <mxGraphModel dx="1258" dy="788" grid="1" gridSize="10" guides="1" tooltips="1" connect="1" arrows="1" fold="1" page="1" pageScale="1" pageWidth="827" pageHeight="1169" math="0" shadow="0">
      <root>
        <mxCell id="WIyWlLk6GJQsqaUBKTNV-0" />
        <mxCell id="WIyWlLk6GJQsqaUBKTNV-1" parent="WIyWlLk6GJQsqaUBKTNV-0" />
        <mxCell id="QOmOsGjM8HWpgaqkYlDh-12" value="" style="whiteSpace=wrap;html=1;aspect=fixed;" vertex="1" parent="WIyWlLk6GJQsqaUBKTNV-1">
          <mxGeometry x="49" y="40" width="190" height="190" as="geometry" />
        </mxCell>
        <mxCell id="QOmOsGjM8HWpgaqkYlDh-4" value="Redis Sorted Set" style="image;sketch=0;aspect=fixed;html=1;points=[];align=center;fontSize=12;image=img/lib/mscae/Cache_Redis_Product.svg;" vertex="1" parent="WIyWlLk6GJQsqaUBKTNV-1">
          <mxGeometry x="119" y="157" width="50" height="42" as="geometry" />
        </mxCell>
        <mxCell id="QOmOsGjM8HWpgaqkYlDh-5" value="Indexing service" style="outlineConnect=0;dashed=0;verticalLabelPosition=bottom;verticalAlign=top;align=center;html=1;shape=mxgraph.aws3.global_secondary_index;fillColor=#2E73B8;gradientColor=none;" vertex="1" parent="WIyWlLk6GJQsqaUBKTNV-1">
          <mxGeometry x="475.13" y="110" width="67.5" height="66" as="geometry" />
        </mxCell>
        <mxCell id="QOmOsGjM8HWpgaqkYlDh-6" value="" style="sketch=0;points=[[0,0,0],[0.25,0,0],[0.5,0,0],[0.75,0,0],[1,0,0],[0,1,0],[0.25,1,0],[0.5,1,0],[0.75,1,0],[1,1,0],[0,0.25,0],[0,0.5,0],[0,0.75,0],[1,0.25,0],[1,0.5,0],[1,0.75,0]];outlineConnect=0;fontColor=#232F3E;fillColor=#8C4FFF;strokeColor=#ffffff;dashed=0;verticalLabelPosition=bottom;verticalAlign=top;align=center;html=1;fontSize=12;fontStyle=0;aspect=fixed;shape=mxgraph.aws4.resourceIcon;resIcon=mxgraph.aws4.managed_streaming_for_kafka;" vertex="1" parent="WIyWlLk6GJQsqaUBKTNV-1">
          <mxGeometry x="330" y="393" width="78" height="78" as="geometry" />
        </mxCell>
        <mxCell id="QOmOsGjM8HWpgaqkYlDh-7" value="Main DB" style="strokeWidth=2;html=1;shape=mxgraph.flowchart.database;whiteSpace=wrap;" vertex="1" parent="WIyWlLk6GJQsqaUBKTNV-1">
          <mxGeometry x="114" y="60" width="60" height="60" as="geometry" />
        </mxCell>
        <mxCell id="QOmOsGjM8HWpgaqkYlDh-14" value="Read order from&amp;nbsp;" style="edgeStyle=orthogonalEdgeStyle;rounded=0;orthogonalLoop=1;jettySize=auto;html=1;" edge="1" parent="WIyWlLk6GJQsqaUBKTNV-1" source="QOmOsGjM8HWpgaqkYlDh-8" target="QOmOsGjM8HWpgaqkYlDh-4">
          <mxGeometry relative="1" as="geometry" />
        </mxCell>
        <mxCell id="QOmOsGjM8HWpgaqkYlDh-15" value="publish matched order" style="edgeStyle=orthogonalEdgeStyle;rounded=0;orthogonalLoop=1;jettySize=auto;html=1;" edge="1" parent="WIyWlLk6GJQsqaUBKTNV-1" source="QOmOsGjM8HWpgaqkYlDh-8" target="QOmOsGjM8HWpgaqkYlDh-6">
          <mxGeometry relative="1" as="geometry" />
        </mxCell>
        <mxCell id="QOmOsGjM8HWpgaqkYlDh-22" value="set orders status to inprogress" style="edgeStyle=orthogonalEdgeStyle;rounded=0;orthogonalLoop=1;jettySize=auto;html=1;exitX=0.5;exitY=0;exitDx=0;exitDy=0;exitPerimeter=0;entryX=0.75;entryY=1;entryDx=0;entryDy=0;" edge="1" parent="WIyWlLk6GJQsqaUBKTNV-1" source="QOmOsGjM8HWpgaqkYlDh-8" target="QOmOsGjM8HWpgaqkYlDh-12">
          <mxGeometry x="-0.0181" y="-38" relative="1" as="geometry">
            <Array as="points">
              <mxPoint x="192" y="320" />
            </Array>
            <mxPoint as="offset" />
          </mxGeometry>
        </mxCell>
        <mxCell id="QOmOsGjM8HWpgaqkYlDh-8" value="Matching engine" style="outlineConnect=0;dashed=0;verticalLabelPosition=bottom;verticalAlign=top;align=center;html=1;shape=mxgraph.aws3.emr_engine;fillColor=#F58534;gradientColor=none;" vertex="1" parent="WIyWlLk6GJQsqaUBKTNV-1">
          <mxGeometry x="102.75" y="320" width="82.5" height="60" as="geometry" />
        </mxCell>
        <mxCell id="QOmOsGjM8HWpgaqkYlDh-9" value="Bundle txn" style="outlineConnect=0;dashed=0;verticalLabelPosition=bottom;verticalAlign=top;align=center;html=1;shape=mxgraph.aws3.kinesis_streams;fillColor=#F58534;gradientColor=none;" vertex="1" parent="WIyWlLk6GJQsqaUBKTNV-1">
          <mxGeometry x="537.76" y="330" width="60" height="63" as="geometry" />
        </mxCell>
        <mxCell id="QOmOsGjM8HWpgaqkYlDh-23" value="update orders status" style="edgeStyle=orthogonalEdgeStyle;rounded=0;orthogonalLoop=1;jettySize=auto;html=1;entryX=0.139;entryY=1.006;entryDx=0;entryDy=0;entryPerimeter=0;" edge="1" parent="WIyWlLk6GJQsqaUBKTNV-1" source="QOmOsGjM8HWpgaqkYlDh-10" target="QOmOsGjM8HWpgaqkYlDh-12">
          <mxGeometry x="-0.1377" y="-10" relative="1" as="geometry">
            <mxPoint as="offset" />
          </mxGeometry>
        </mxCell>
        <mxCell id="QOmOsGjM8HWpgaqkYlDh-10" value="Risk management" style="image;aspect=fixed;html=1;points=[];align=center;fontSize=12;image=img/lib/azure2/security/Azure_AD_Risky_Signins.svg;" vertex="1" parent="WIyWlLk6GJQsqaUBKTNV-1">
          <mxGeometry x="482.63" y="652.67" width="55.13" height="55.33" as="geometry" />
        </mxCell>
        <mxCell id="QOmOsGjM8HWpgaqkYlDh-13" value="Index events" style="edgeStyle=orthogonalEdgeStyle;rounded=0;orthogonalLoop=1;jettySize=auto;html=1;entryX=0.996;entryY=0.539;entryDx=0;entryDy=0;entryPerimeter=0;" edge="1" parent="WIyWlLk6GJQsqaUBKTNV-1" source="QOmOsGjM8HWpgaqkYlDh-5" target="QOmOsGjM8HWpgaqkYlDh-12">
          <mxGeometry relative="1" as="geometry" />
        </mxCell>
        <mxCell id="QOmOsGjM8HWpgaqkYlDh-16" value="consume topic" style="edgeStyle=orthogonalEdgeStyle;rounded=0;orthogonalLoop=1;jettySize=auto;html=1;entryX=1;entryY=0.25;entryDx=0;entryDy=0;entryPerimeter=0;" edge="1" parent="WIyWlLk6GJQsqaUBKTNV-1" source="QOmOsGjM8HWpgaqkYlDh-9" target="QOmOsGjM8HWpgaqkYlDh-6">
          <mxGeometry relative="1" as="geometry">
            <mxPoint x="388" y="440" as="targetPoint" />
          </mxGeometry>
        </mxCell>
        <mxCell id="QOmOsGjM8HWpgaqkYlDh-17" value="Onchain" style="ellipse;shape=cloud;whiteSpace=wrap;html=1;" vertex="1" parent="WIyWlLk6GJQsqaUBKTNV-1">
          <mxGeometry x="650" y="230" width="120" height="80" as="geometry" />
        </mxCell>
        <mxCell id="QOmOsGjM8HWpgaqkYlDh-18" value="bundle txn and submit in a timeframe" style="edgeStyle=orthogonalEdgeStyle;rounded=0;orthogonalLoop=1;jettySize=auto;html=1;entryX=0.55;entryY=0.95;entryDx=0;entryDy=0;entryPerimeter=0;" edge="1" parent="WIyWlLk6GJQsqaUBKTNV-1" source="QOmOsGjM8HWpgaqkYlDh-9" target="QOmOsGjM8HWpgaqkYlDh-17">
          <mxGeometry relative="1" as="geometry" />
        </mxCell>
        <mxCell id="QOmOsGjM8HWpgaqkYlDh-19" value="return tx response&lt;div&gt;&lt;br&gt;&lt;/div&gt;" style="edgeStyle=orthogonalEdgeStyle;rounded=0;orthogonalLoop=1;jettySize=auto;html=1;entryX=0.5;entryY=0;entryDx=0;entryDy=0;entryPerimeter=0;" edge="1" parent="WIyWlLk6GJQsqaUBKTNV-1" source="QOmOsGjM8HWpgaqkYlDh-17" target="QOmOsGjM8HWpgaqkYlDh-9">
          <mxGeometry relative="1" as="geometry" />
        </mxCell>
        <mxCell id="QOmOsGjM8HWpgaqkYlDh-20" value="publish txn response with orders" style="edgeStyle=orthogonalEdgeStyle;rounded=0;orthogonalLoop=1;jettySize=auto;html=1;exitX=0.5;exitY=1;exitDx=0;exitDy=0;exitPerimeter=0;entryX=1;entryY=0.75;entryDx=0;entryDy=0;entryPerimeter=0;" edge="1" parent="WIyWlLk6GJQsqaUBKTNV-1" source="QOmOsGjM8HWpgaqkYlDh-9" target="QOmOsGjM8HWpgaqkYlDh-6">
          <mxGeometry relative="1" as="geometry" />
        </mxCell>
        <mxCell id="QOmOsGjM8HWpgaqkYlDh-25" value="&lt;span style=&quot;color: rgb(0, 0, 0); font-family: Helvetica; font-size: 11px; font-style: normal; font-variant-ligatures: normal; font-variant-caps: normal; font-weight: 400; letter-spacing: normal; orphans: 2; text-align: center; text-indent: 0px; text-transform: none; widows: 2; word-spacing: 0px; -webkit-text-stroke-width: 0px; white-space: nowrap; background-color: rgb(255, 255, 255); text-decoration-thickness: initial; text-decoration-style: initial; text-decoration-color: initial; display: inline !important; float: none;&quot;&gt;consume failed txn (try again (max retry?) or notify)&lt;/span&gt;" style="edgeStyle=orthogonalEdgeStyle;rounded=0;orthogonalLoop=1;jettySize=auto;html=1;entryX=0.5;entryY=1;entryDx=0;entryDy=0;entryPerimeter=0;" edge="1" parent="WIyWlLk6GJQsqaUBKTNV-1" source="QOmOsGjM8HWpgaqkYlDh-10" target="QOmOsGjM8HWpgaqkYlDh-6">
          <mxGeometry relative="1" as="geometry">
            <Array as="points">
              <mxPoint x="510" y="590" />
              <mxPoint x="369" y="590" />
            </Array>
          </mxGeometry>
        </mxCell>
        <mxCell id="QOmOsGjM8HWpgaqkYlDh-26" value="re-submit txn?" style="edgeStyle=orthogonalEdgeStyle;rounded=0;orthogonalLoop=1;jettySize=auto;html=1;entryX=0;entryY=0.75;entryDx=0;entryDy=0;entryPerimeter=0;" edge="1" parent="WIyWlLk6GJQsqaUBKTNV-1" source="QOmOsGjM8HWpgaqkYlDh-10" target="QOmOsGjM8HWpgaqkYlDh-6">
          <mxGeometry x="-0.0317" relative="1" as="geometry">
            <Array as="points">
              <mxPoint x="510" y="650" />
              <mxPoint x="259" y="650" />
              <mxPoint x="259" y="452" />
            </Array>
            <mxPoint x="1" as="offset" />
          </mxGeometry>
        </mxCell>
      </root>
    </mxGraphModel>
  </diagram>
</mxfile>
